<svg id="Capa_1" enable-background="new 0 0 512 512" height="512" viewBox="0 0 512 512" width="512" xmlns="http://www.w3.org/2000/svg"><g><path d="m382.87 497c0 8.28-6.72 15-15 15h-223.75c-8.28 0-15-6.72-15-15 0-36.76 21.13-68.67 51.88-84.23v4.89c0 41.36 33.64 75 75 75s75-33.64 75-75v-4.95c8.85 4.46 17.03 10.37 24.24 17.59 17.82 17.81 27.63 41.5 27.63 66.7z"/><g><path d="m94.995 305.66c-27.783-.247-50.65-22.785-50.65-51.13 0-22.18 14.18-41.1 33.95-48.17-.939 33.57 4.659 67.965 16.7 99.3z"/></g><g><path d="m452.655 290.69c-9.49 9.51-22.09 14.82-35.53 14.97 11.477-29.567 17.571-63.564 16.57-99.3 35.369 12.648 45.461 57.884 18.96 84.33z"/></g><g><path d="m475.805 84.24c0 22.34-8.66 43.39-24.37 59.26-6.79 6.85-14.54 12.4-22.96 16.5-7.152-35.328-21.716-68.68-43.51-96.66-13.94-17.9-29.93-32.51-47.66-43.57 14.83-12.48 33.88-19.77 54.26-19.77 46.45 0 84.24 37.79 84.24 84.24z"/></g><g><path d="m174.695 19.77c-17.73 11.06-33.73 25.67-47.66 43.56-20.234 25.974-35.763 58.535-43.52 96.66-8.41-4.1-16.16-9.64-22.94-16.48-15.72-15.88-24.38-36.93-24.38-59.27 0-46.45 37.79-84.24 84.23-84.24 20.38 0 39.44 7.29 54.27 19.77z"/></g><path d="m209.835 161.71c-24.19 22.87-58.63 36.97-101.43 41.85 1.98-48.32 17.79-90.33 42.29-121.79 27.98-35.91 65.38-55.7 105.3-55.7s77.32 19.79 105.3 55.7c24.5 31.46 40.31 73.47 42.29 121.79-42-4.8-75.98-18.47-100.08-40.59-25.74-23.61-32.09-49.49-32.72-52.3-.01-.06-.02-.11-.03-.15-.01-.06-.02-.09-.02-.1-3.034-16.209-26.53-16.257-29.5.1-.05.26-5.44 26.65-31.4 51.19z"/><path d="m255.995 151.77c-30.779 51.54-87.212 75.807-146.91 81.96 3.59 41.7 18.05 80.4 41.61 110.65 27.98 35.92 65.38 55.7 105.3 55.7 39.93 0 77.33-19.78 105.31-55.7 23.7-30.43 38.19-68.82 41.67-110.64-60.075-6.216-116.288-30.577-146.98-81.97zm-71.04 118.07c-8.28 0-15-6.71-15-15 0-8.28 6.72-15 15-15s15 6.72 15 15c0 8.29-6.72 15-15 15zm99.3 75.23c-8.98 4.07-18.62 6.1-28.26 6.1s-19.28-2.03-28.26-6.1c-7.54-3.42-10.89-12.31-7.47-19.85 3.42-7.55 12.31-10.9 19.85-7.48 5.04 2.29 10.46 3.44 15.88 3.44s10.84-1.15 15.88-3.44c7.54-3.41 16.43-.07 19.85 7.48 3.42 7.54.07 16.43-7.47 19.85zm42.78-75.23c-8.28 0-15-6.71-15-15 0-8.28 6.72-15 15-15s15 6.72 15 15c0 8.29-6.72 15-15 15z"/><path d="m300.65 423.29c-2.78 22.17-21.75 39.37-44.65 39.37-22.91 0-41.87-17.2-44.65-39.37 14.45 4.52 29.38 6.79 44.64 6.79 15.27 0 30.21-2.27 44.66-6.79z"/></g></svg>